<svg width="25" height="24" viewBox="0 0 25 24" fill="none" xmlns="http://www.w3.org/2000/svg">
<g clip-path="url(#clip0_12737_17755)">
<path fill-rule="evenodd" clip-rule="evenodd" d="M4.6665 12.0002C4.66665 10.4607 5.11102 8.95389 5.94629 7.66063C6.78157 6.36737 7.97226 5.34259 9.37551 4.70926C10.7788 4.07593 12.3349 3.86095 13.8573 4.09012C15.3797 4.31929 16.8037 4.98287 17.9583 6.00124C19.1129 7.01961 19.9491 8.3495 20.3667 9.83135C20.7842 11.3132 20.7653 12.8841 20.3122 14.3554C19.8591 15.8268 18.9911 17.1362 17.8123 18.1264C16.6335 19.1167 15.194 19.7458 13.6665 19.9382V14.0002H15.6665C15.9317 14.0002 16.1861 13.8949 16.3736 13.7074C16.5611 13.5198 16.6665 13.2655 16.6665 13.0002C16.6665 12.735 16.5611 12.4807 16.3736 12.2931C16.1861 12.1056 15.9317 12.0002 15.6665 12.0002H13.6665V10.0002C13.6665 9.73503 13.7719 9.48067 13.9594 9.29314C14.1469 9.1056 14.4013 9.00024 14.6665 9.00024H15.1665C15.4317 9.00024 15.6861 8.89489 15.8736 8.70735C16.0611 8.51981 16.1665 8.26546 16.1665 8.00024C16.1665 7.73503 16.0611 7.48067 15.8736 7.29314C15.6861 7.1056 15.4317 7.00024 15.1665 7.00024H14.6665C13.8709 7.00024 13.1078 7.31631 12.5452 7.87892C11.9826 8.44153 11.6665 9.20459 11.6665 10.0002V12.0002H9.6665C9.40129 12.0002 9.14693 12.1056 8.9594 12.2931C8.77186 12.4807 8.6665 12.735 8.6665 13.0002C8.6665 13.2655 8.77186 13.5198 8.9594 13.7074C9.14693 13.8949 9.40129 14.0002 9.6665 14.0002H11.6665V19.9382C9.7332 19.6945 7.95532 18.7535 6.66651 17.292C5.37769 15.8305 4.66654 13.9489 4.6665 12.0002ZM12.6665 22.0002C18.1895 22.0002 22.6665 17.5232 22.6665 12.0002C22.6665 6.47724 18.1895 2.00024 12.6665 2.00024C7.1435 2.00024 2.6665 6.47724 2.6665 12.0002C2.6665 17.5232 7.1435 22.0002 12.6665 22.0002Z" fill="white"/>
</g>
<defs>
<clipPath id="clip0_12737_17755">
<rect width="24" height="24" fill="white" transform="translate(0.666626)"/>
</clipPath>
</defs>
</svg>
