<svg width="25" height="24" viewBox="0 0 25 24" fill="none" xmlns="http://www.w3.org/2000/svg">
<path d="M12.3332 16.0001C13.3941 16.0001 14.4115 15.5787 15.1616 14.8285C15.9118 14.0784 16.3332 13.061 16.3332 12.0001C16.3332 10.9393 15.9118 9.92184 15.1616 9.17169C14.4115 8.42155 13.3941 8.00012 12.3332 8.00012C11.2723 8.00012 10.2549 8.42155 9.50476 9.17169C8.75462 9.92184 8.33319 10.9393 8.33319 12.0001C8.33319 13.061 8.75462 14.0784 9.50476 14.8285C10.2549 15.5787 11.2723 16.0001 12.3332 16.0001Z" stroke="white" stroke-width="2" stroke-linecap="round" stroke-linejoin="round"/>
<path d="M3.33331 15.9999V7.99988C3.33331 6.6738 3.8601 5.40203 4.79778 4.46434C5.73546 3.52666 7.00723 2.99988 8.33331 2.99988H16.3333C17.6594 2.99988 18.9312 3.52666 19.8688 4.46434C20.8065 5.40203 21.3333 6.6738 21.3333 7.99988V15.9999C21.3333 17.326 20.8065 18.5977 19.8688 19.5354C18.9312 20.4731 17.6594 20.9999 16.3333 20.9999H8.33331C7.00723 20.9999 5.73546 20.4731 4.79778 19.5354C3.8601 18.5977 3.33331 17.326 3.33331 15.9999Z" stroke="white" stroke-width="2"/>
<path d="M17.8333 6.50978L17.8433 6.49878" stroke="white" stroke-width="2" stroke-linecap="round" stroke-linejoin="round"/>
</svg>
