<svg width="25" height="24" viewBox="0 0 25 24" fill="none" xmlns="http://www.w3.org/2000/svg">
<path d="M14.3333 11.9998L10.8333 13.9998V9.99976L14.3333 11.9998Z" fill="white" stroke="white" stroke-width="2" stroke-linecap="round" stroke-linejoin="round"/>
<path d="M2.33344 12.7078V11.2918C2.33344 8.39678 2.33344 6.94878 3.23844 6.01778C4.14444 5.08578 5.57044 5.04578 8.42144 4.96478C9.77144 4.92678 11.1514 4.89978 12.3334 4.89978C13.5154 4.89978 14.8944 4.92678 16.2454 4.96478C19.0964 5.04578 20.5224 5.08578 21.4274 6.01778C22.3324 6.94978 22.3334 8.39778 22.3334 11.2918V12.7068C22.3334 15.6028 22.3334 17.0498 21.4284 17.9818C20.5224 18.9128 19.0974 18.9538 16.2454 19.0338C14.8954 19.0728 13.5154 19.0998 12.3334 19.0998C11.1514 19.0998 9.77244 19.0728 8.42144 19.0338C5.57044 18.9538 4.14444 18.9138 3.23844 17.9818C2.33244 17.0498 2.33344 15.6018 2.33344 12.7078Z" stroke="white" stroke-width="2"/>
</svg>
